<?xml version="1.0" standalone="no"?>
<!DOCTYPE svg PUBLIC "-//W3C//DTD SVG 20010904//EN"
 "http://www.w3.org/TR/2001/REC-SVG-20010904/DTD/svg10.dtd">
<svg version="1.0" xmlns="http://www.w3.org/2000/svg"
 width="835.000000pt" height="835.000000pt" viewBox="0 0 835.000000 835.000000"
 preserveAspectRatio="xMidYMid meet">
<metadata>
Created by potrace 1.11, written by Peter Selinger 2001-2013
</metadata>
<g transform="translate(0.000000,835.000000) scale(0.100000,-0.100000)"
fill="#000000" stroke="none">
<path d="M3929 6895 c-2 -2 -35 -6 -74 -10 -38 -4 -79 -9 -90 -12 -11 -2 -38
-6 -60 -9 -22 -2 -47 -7 -55 -10 -8 -3 -31 -8 -50 -10 -19 -3 -53 -10 -75 -15
-22 -6 -51 -13 -64 -16 -13 -2 -39 -10 -57 -18 -19 -8 -34 -12 -34 -10 0 4
-148 -45 -195 -66 -16 -7 -32 -13 -35 -13 -18 -4 -146 -62 -151 -69 -3 -5 -8
-7 -10 -6 -4 3 -67 -27 -144 -68 -77 -41 -242 -147 -258 -166 -10 -12 -16 -15
-12 -7 4 8 -3 4 -14 -9 -12 -13 -21 -19 -21 -15 -1 5 -9 -1 -20 -14 -10 -13
-22 -22 -25 -22 -11 2 -104 -77 -98 -84 3 -3 -1 -6 -10 -6 -20 0 -307 -286
-307 -306 0 -8 -4 -12 -10 -9 -5 3 -10 3 -10 -2 0 -7 -20 -34 -62 -83 -7 -8
-12 -16 -11 -17 1 -1 -11 -17 -27 -34 -16 -18 -27 -36 -25 -40 3 -4 -1 -9 -8
-12 -12 -4 -97 -133 -142 -215 -74 -133 -94 -175 -89 -183 3 -5 0 -9 -5 -9 -6
0 -11 -6 -11 -14 0 -8 -4 -16 -10 -18 -5 -1 -11 -13 -13 -26 -2 -12 -9 -28
-15 -34 -7 -7 -12 -17 -12 -23 0 -6 -14 -43 -30 -83 -17 -40 -28 -77 -25 -82
3 -6 2 -10 -3 -10 -5 0 -22 -46 -38 -103 -20 -72 -33 -103 -44 -104 -15 -1
-52 -8 -97 -18 -12 -3 -40 -7 -62 -10 -22 -3 -51 -9 -64 -14 -14 -6 -27 -8
-29 -5 -3 2 -36 -2 -74 -10 -38 -8 -82 -16 -99 -19 -16 -3 -57 -10 -90 -16
-33 -6 -73 -13 -90 -16 -16 -2 -41 -7 -55 -10 -21 -4 -229 -42 -335 -61 -59
-10 -62 -14 -98 -107 -19 -51 -34 -93 -32 -95 1 -1 35 5 76 13 41 9 91 18 112
20 21 2 41 6 45 9 4 2 32 7 62 11 30 4 57 8 60 10 3 2 26 6 50 10 25 3 52 8
60 10 8 2 30 7 48 10 17 3 47 8 65 11 17 4 41 8 52 9 11 2 20 4 20 5 0 1 14 3
30 5 17 2 41 6 55 10 14 3 39 8 55 10 43 7 86 14 115 20 14 3 39 7 55 10 30 4
69 11 115 20 14 3 39 8 55 10 17 3 41 8 55 10 53 11 76 15 115 20 22 4 56 10
75 15 19 5 53 11 75 14 22 3 51 8 65 11 24 6 41 9 105 19 17 3 41 7 55 10 14
3 63 12 110 20 47 9 96 18 110 20 70 14 209 38 235 42 35 4 70 12 70 14 0 1 9
3 20 4 21 3 116 19 125 21 3 1 39 7 80 14 41 7 84 15 95 18 11 2 31 6 45 8 14
2 63 10 110 19 47 9 96 18 110 20 14 3 25 5 25 6 0 1 16 3 35 6 19 2 60 9 90
15 30 6 62 12 70 13 8 2 40 7 70 11 61 10 69 11 73 15 1 1 13 4 27 5 14 1 36
5 50 8 14 4 39 8 55 11 17 2 82 13 145 25 63 11 129 23 145 26 17 2 41 7 55
10 14 3 41 8 60 11 19 2 43 7 53 10 10 3 35 8 55 10 20 2 51 7 67 11 17 3 39
7 50 9 11 2 30 5 42 8 11 2 43 8 70 12 53 9 62 11 66 13 1 1 16 4 32 6 17 2
66 11 110 19 44 9 94 18 110 20 17 3 68 12 115 21 86 17 129 25 165 29 11 1
34 5 50 9 40 9 83 17 120 22 17 3 41 7 55 10 14 3 36 7 50 10 34 5 188 33 225
40 17 3 41 8 55 11 14 3 39 8 55 10 17 2 41 6 55 9 14 3 63 12 110 20 47 8
108 19 135 25 86 17 109 21 143 26 18 2 119 20 225 40 106 19 208 37 227 40
19 2 42 7 50 9 8 2 31 7 50 10 19 4 69 13 110 21 41 8 89 16 105 19 52 8 77
12 195 34 63 11 129 23 145 26 17 3 41 8 55 11 14 3 39 8 55 10 17 1 66 10
110 19 44 9 96 18 115 21 19 3 44 6 55 9 91 18 126 24 165 30 25 3 54 9 65 12
11 3 31 7 45 8 14 1 51 8 82 14 32 7 70 14 85 16 16 2 28 4 28 5 0 1 18 3 40
6 22 2 47 7 55 11 8 3 29 7 45 10 32 4 67 10 75 13 3 1 13 1 23 0 16 -1 49 54
59 100 2 8 5 17 8 20 7 7 30 73 27 76 -1 1 -34 -3 -72 -11 -39 -7 -88 -16
-110 -19 -22 -4 -113 -20 -203 -36 -90 -17 -180 -33 -199 -36 -20 -3 -46 -10
-59 -14 -12 -5 -24 -7 -26 -5 -2 3 -36 -2 -74 -9 -65 -14 -104 -21 -164 -31
-56 -9 -96 -16 -110 -20 -8 -2 -33 -7 -55 -10 -23 -3 -52 -8 -65 -10 -45 -9
-234 -43 -280 -51 -50 -9 -59 -11 -62 -14 -3 -2 -22 -5 -88 -14 -25 -4 -52 -8
-60 -10 -52 -10 -138 -26 -174 -31 -15 -2 -35 -7 -45 -9 -9 -3 -36 -8 -61 -11
-43 -6 -46 -4 -58 25 -8 16 -18 28 -23 24 -5 -3 -9 0 -9 6 0 11 -18 36 -80
114 -81 101 -339 358 -352 350 -4 -3 -8 -1 -8 5 0 17 -270 221 -270 204 0 -4
-5 0 -11 10 -5 9 -17 17 -24 17 -8 0 -15 5 -15 10 0 6 -5 10 -11 10 -6 0 -24
9 -40 21 -16 11 -29 17 -29 12 0 -4 -4 -3 -8 3 -10 16 -102 67 -102 57 0 -4
-4 -3 -8 3 -12 19 -332 157 -391 169 -9 2 -36 10 -61 18 -104 36 -277 72 -435
93 -22 3 -51 8 -65 11 -28 6 -486 14 -491 8z m-828 -450 c9 -6 24 -24 33 -42
21 -41 28 -45 95 -49 52 -2 58 0 92 32 33 32 39 34 58 22 30 -18 27 -28 -26
-73 -36 -32 -54 -40 -87 -41 -88 -3 -83 0 -77 -46 l6 -43 79 0 c75 0 80 1 90
25 10 22 18 25 64 26 29 1 55 4 57 6 11 11 12 58 2 60 -7 0 -16 2 -22 2 -28 4
-33 16 -19 45 19 37 25 39 114 36 106 -4 127 -6 112 -12 -6 -2 -10 -9 -6 -14
3 -5 1 -9 -4 -9 -5 0 -24 -13 -41 -28 -29 -25 -32 -32 -26 -63 7 -36 8 -36 77
-42 21 -2 23 2 23 54 0 56 13 80 45 87 8 2 17 7 20 10 8 11 50 19 151 28 59 5
72 2 129 -25 34 -17 66 -28 71 -26 4 3 10 1 14 -4 9 -15 66 -41 76 -35 10 6
10 6 14 -51 1 -22 3 -46 4 -52 0 -7 11 -13 24 -13 37 0 51 -14 38 -39 -7 -11
-9 -21 -6 -21 4 0 0 -7 -9 -15 -9 -10 -34 -15 -69 -15 l-54 0 -17 -44 -17 -44
-94 24 c-52 13 -106 25 -120 26 -14 1 -25 6 -25 10 0 11 34 42 51 46 8 2 34
15 59 30 25 15 48 27 53 28 4 1 10 2 14 3 4 0 -10 17 -32 36 -29 27 -45 35
-64 31 -14 -3 -52 -8 -84 -11 -48 -5 -65 -13 -98 -43 -22 -20 -45 -38 -52 -38
-7 -1 -24 -2 -39 -3 -30 -1 -33 -26 -5 -46 25 -18 21 -23 -22 -30 -28 -5 -38
-11 -37 -23 1 -13 -7 -17 -34 -17 -32 0 -35 2 -38 34 -3 30 -6 33 -30 27 -15
-3 -38 -9 -52 -12 -29 -6 -112 -52 -122 -68 -4 -6 -8 -8 -8 -4 0 6 -122 -62
-139 -78 -7 -7 22 -104 30 -98 5 3 9 1 9 -3 0 -10 55 -44 67 -42 4 1 32 -1 61
-6 l52 -8 0 -73 c0 -70 1 -74 23 -74 20 0 57 30 57 47 0 3 8 23 18 44 13 30
24 39 52 44 19 4 39 10 45 13 5 4 12 7 15 7 43 6 46 13 45 103 l-1 87 39 31
39 31 67 -15 c139 -30 126 -23 122 -67 -7 -81 -8 -80 19 -79 30 1 110 35 110
47 0 4 5 5 10 2 6 -3 10 -2 10 3 0 17 30 8 31 -10 1 -10 3 -31 4 -48 1 -16 3
-42 4 -58 1 -21 11 -33 42 -52 22 -14 45 -24 50 -23 5 2 8 -24 7 -56 -1 -33
-4 -59 -7 -59 -18 4 -91 -27 -91 -38 0 -13 83 -57 107 -57 7 0 10 -4 7 -8 -2
-4 0 -10 5 -13 11 -7 2 -48 -12 -58 -6 -3 -27 0 -49 8 -21 7 -42 14 -46 14 -4
0 -23 5 -42 10 -30 8 -36 15 -38 39 -2 22 3 31 18 36 13 4 20 15 20 31 0 34
-28 43 -49 15 -14 -18 -28 -23 -72 -24 -29 -1 -55 2 -56 6 -9 34 -99 52 -120
25 -13 -18 -10 -53 4 -53 6 0 15 -3 19 -7 4 -5 18 -8 31 -8 28 0 29 -10 2 -41
-13 -16 -22 -20 -27 -12 -10 16 -62 28 -62 14 0 -6 -4 -10 -8 -8 -14 4 -100
-86 -95 -100 3 -7 1 -13 -5 -13 -17 0 -156 -82 -179 -105 -12 -13 -19 -26 -15
-30 4 -4 2 -5 -3 -3 -6 2 -35 -21 -64 -50 -29 -29 -56 -50 -60 -47 -5 2 -23 0
-42 -5 -18 -5 -51 -12 -73 -15 -23 -3 -52 -7 -66 -10 -42 -8 -144 -27 -170
-31 -14 -2 -36 -6 -50 -9 -14 -3 -38 -8 -55 -10 -16 -3 -41 -7 -55 -10 -14 -3
-41 -8 -60 -11 -19 -2 -46 -7 -60 -10 -55 -10 -69 -13 -101 -18 -19 -3 -45 -8
-59 -11 -14 -3 -41 -8 -60 -11 -19 -3 -55 -10 -80 -16 -25 -5 -61 -11 -80 -14
-19 -2 -46 -6 -60 -9 -14 -3 -41 -8 -60 -11 -19 -4 -44 -9 -55 -11 -11 -2 -33
-6 -50 -8 -37 -6 -84 -15 -107 -21 -13 -4 -18 0 -18 15 0 18 -6 21 -30 19 -26
-2 -30 -6 -28 -26 3 -22 -1 -25 -43 -28 l-46 -4 2 39 c3 49 -1 55 -47 74 -39
16 -47 34 -26 55 7 7 9 12 5 12 -4 0 2 18 13 40 11 22 17 40 13 40 -5 0 -3 4
2 8 6 4 23 35 38 70 28 66 141 276 157 292 5 5 75 108 95 139 6 8 15 20 21 26
5 5 28 34 49 63 22 28 43 52 48 52 4 0 5 5 2 10 -3 6 -1 10 5 10 5 0 19 15 30
33 11 17 20 28 20 23 0 -5 9 2 20 15 39 46 135 142 157 156 13 9 20 20 16 26
-3 6 -1 7 6 3 6 -4 14 0 17 8 3 9 13 16 21 16 8 0 11 5 8 10 -3 6 -1 10 4 10
6 0 20 9 31 20 11 11 20 18 20 15 0 -3 10 4 23 16 12 11 33 28 47 37 14 9 42
30 62 46 39 31 78 40 90 23 6 -11 19 -15 73 -23 46 -6 55 -11 64 -37 8 -21 15
-23 95 -26 l85 -2 -14 28 c-13 27 -17 28 -88 28 -56 0 -73 3 -70 12 3 7 8 13
12 13 12 0 11 48 -2 52 -6 2 -36 4 -65 3 -29 0 -51 3 -49 8 3 10 43 35 135 84
55 30 120 37 153 18z m2807 -436 c112 -110 222 -234 222 -250 0 -5 5 -7 10 -4
6 3 10 0 10 -8 0 -7 9 -23 21 -36 24 -26 24 -27 -16 -34 -95 -16 -272 -48
-285 -52 -8 -2 -34 -7 -57 -10 -23 -3 -75 -12 -115 -20 -40 -7 -74 -12 -76
-10 -5 5 39 69 50 73 4 2 8 8 8 13 0 6 9 19 20 31 10 12 18 24 15 27 -6 10 50
15 143 13 l84 -1 -6 42 c-3 23 -5 49 -5 58 -1 12 -8 15 -26 11 -14 -2 -25 -8
-25 -11 0 -4 -6 -8 -12 -8 -7 0 -22 -3 -34 -6 -17 -6 -23 0 -38 42 -16 45 -20
49 -47 47 -24 -2 -31 2 -35 23 -3 14 -7 31 -9 37 -5 15 57 78 80 82 11 2 24 7
29 12 12 12 39 -6 94 -61z m-408 -131 c17 -73 67 -154 107 -173 34 -17 52 -35
33 -35 -7 0 -20 -10 -29 -22 -10 -12 -26 -23 -37 -25 -27 -5 -154 -6 -158 -2
-1 2 -1 23 2 46 4 39 7 43 38 49 30 5 34 9 28 28 -4 11 -7 21 -8 22 0 0 -22
15 -48 33 -71 47 -65 96 14 118 24 6 44 11 45 12 0 1 6 -23 13 -51z m-115 -80
c38 -17 34 -60 -7 -89 -18 -13 -35 -26 -38 -30 -11 -13 -50 -29 -74 -29 -18 0
-26 6 -28 23 -4 24 21 87 34 87 4 0 8 6 8 14 0 8 17 18 38 24 20 5 38 10 39
11 1 1 14 -4 28 -11z m-1394 -318 c6 0 5 -8 -1 -20 -6 -10 -16 -17 -24 -14 -8
3 -16 -4 -20 -20 -4 -18 -16 -28 -39 -34 -34 -9 -48 -2 -60 31 -6 17 -5 18 50
21 13 0 30 11 39 24 9 14 22 21 31 18 8 -3 19 -6 24 -6z m-204 -52 c18 -30 13
-46 -17 -50 -25 -4 -30 -1 -30 17 0 35 31 57 47 33z"/>
<path d="M7246 5372 c-3 -3 -6 -16 -6 -28 0 -20 4 -23 35 -20 l35 2 0 -93 0
-93 31 3 32 2 -1 90 -1 90 36 0 c33 0 37 3 38 27 l2 27 -98 -1 c-54 0 -100 -2
-103 -6z"/>
<path d="M7478 5368 c-4 -11 -3 -198 1 -221 0 -4 14 -6 30 -5 29 2 30 2 28 65
-1 35 -1 63 1 63 8 0 39 -39 35 -44 -4 -3 -1 -6 5 -6 7 0 12 -7 12 -15 0 -8 5
-15 12 -15 6 0 9 3 6 6 -3 3 5 17 18 31 13 14 21 30 17 36 -3 5 0 8 8 5 10 -3
13 -22 13 -66 -1 -57 1 -62 20 -62 12 0 26 4 31 8 16 11 13 224 -3 230 -29 9
-62 -10 -83 -48 -13 -22 -25 -40 -29 -40 -3 0 -14 16 -24 35 -11 19 -23 35
-28 35 -5 0 -6 5 -3 10 4 6 -8 10 -28 10 -19 0 -37 -6 -39 -12z"/>
<path d="M6778 5137 c-27 -5 -48 -13 -48 -19 0 -5 -4 -7 -9 -4 -13 8 -125 -50
-161 -84 -16 -15 -30 -25 -30 -22 0 8 -79 -81 -80 -90 0 -4 -7 -13 -14 -21
-21 -21 -75 -135 -87 -182 -17 -71 -22 -202 -9 -257 15 -62 57 -158 71 -158 5
0 9 -6 9 -14 0 -7 12 -22 26 -32 15 -10 35 -27 44 -38 10 -10 23 -15 29 -11 6
3 11 2 11 -4 0 -6 28 -19 61 -29 83 -26 218 -23 316 7 54 16 153 63 153 73 0
5 4 7 9 4 15 -10 172 151 165 169 -3 8 -10 12 -15 9 -5 -3 -9 0 -9 6 0 6 -8
14 -17 17 -10 4 -32 17 -49 30 -17 13 -36 23 -42 23 -7 0 -12 4 -12 9 0 5 -7
12 -16 15 -17 7 -67 -37 -56 -50 4 -4 2 -4 -5 0 -6 3 -19 -4 -27 -16 -9 -12
-16 -19 -16 -14 0 5 -8 2 -18 -7 -42 -39 -175 -52 -227 -24 -11 6 -23 10 -26
10 -4 -1 -18 20 -33 47 l-26 48 52 11 c29 6 67 12 83 15 56 9 320 56 345 61
14 3 39 7 55 10 17 3 39 7 50 9 11 3 27 5 36 5 14 1 16 14 14 94 -2 50 -4 92
-5 92 -1 0 -4 14 -6 30 -3 17 -14 49 -24 73 -11 23 -20 46 -21 50 -1 4 -18 27
-39 53 -36 42 -140 111 -140 92 0 -4 -4 -2 -9 6 -11 17 -180 23 -253 8z m122
-252 c16 -8 30 -20 30 -26 0 -6 6 -7 13 -3 6 4 9 4 5 -1 -4 -4 -1 -20 7 -36
20 -38 19 -69 -2 -70 -10 0 -25 -2 -33 -4 -17 -3 -81 -14 -120 -20 -14 -3 -35
-6 -47 -9 -11 -2 -42 -8 -69 -12 l-47 -7 8 29 c4 16 8 35 8 42 0 6 3 12 6 12
4 0 14 15 24 33 10 18 31 41 47 52 17 11 30 22 30 25 0 13 112 9 140 -5z"/>
<path d="M5937 4984 c-1 -1 -22 -4 -47 -7 -64 -8 -168 -42 -191 -63 -10 -9
-19 -14 -19 -11 0 12 -61 -30 -121 -83 -33 -29 -59 -59 -59 -67 0 -8 -4 -11
-10 -8 -5 3 -10 -1 -10 -9 0 -9 -3 -16 -8 -16 -7 0 -72 -119 -76 -143 -2 -7
-6 -19 -9 -27 -26 -66 -29 -216 -7 -286 28 -87 108 -204 139 -204 6 0 11 -5
11 -11 0 -5 5 -7 10 -4 6 3 10 2 10 -2 0 -12 64 -40 121 -52 46 -10 199 -9
216 2 5 3 20 8 34 10 36 7 169 68 169 78 0 5 6 9 13 9 14 0 137 125 137 139 0
5 7 17 16 26 17 17 11 31 -15 37 -8 2 -23 11 -33 21 -10 10 -23 15 -28 12 -6
-4 -10 -1 -10 4 0 6 -4 11 -10 11 -5 0 -32 13 -59 30 -28 16 -53 25 -56 20 -4
-6 -4 -10 -2 -10 3 0 -11 -17 -32 -38 -20 -21 -39 -36 -43 -34 -5 2 -8 -2 -8
-7 0 -6 -3 -10 -7 -9 -5 1 -21 -5 -38 -12 -43 -18 -99 -19 -137 -2 -18 8 -37
14 -41 13 -5 -1 -6 3 -3 8 4 5 1 13 -6 18 -26 16 -42 65 -42 126 0 75 6 117
16 117 3 0 10 9 13 21 10 32 70 88 112 105 52 22 116 19 164 -7 21 -13 39 -26
39 -31 0 -19 28 -5 71 35 25 23 74 67 108 98 l61 55 -33 35 c-52 54 -73 67
-138 89 -47 16 -153 31 -162 24z"/>
<path d="M5256 4862 c-4 -3 -12 -7 -19 -8 -60 -9 -157 -84 -189 -148 -12 -23
-19 -41 -17 -41 2 0 -3 -8 -11 -17 -8 -9 -17 -15 -20 -13 -3 2 -4 39 -4 84 l2
81 -37 -5 c-20 -3 -92 -15 -161 -28 l-125 -23 -3 -472 c-2 -445 -1 -471 15
-468 10 2 36 7 58 11 22 4 51 9 65 11 14 3 48 9 75 14 49 10 94 18 106 19 3 1
6 72 6 159 0 226 17 324 65 376 9 10 15 23 12 27 -2 4 1 11 7 15 8 5 10 2 4
-7 -4 -8 6 1 23 19 17 18 33 32 34 32 2 -1 17 4 33 11 17 6 50 17 75 23 l45
12 2 170 c1 157 0 170 -17 171 -10 1 -21 -1 -24 -5z"/>
<path d="M3365 4791 c-3 -2 -19 -6 -37 -8 -17 -2 -43 -6 -57 -9 -14 -3 -44 -7
-66 -10 -22 -2 -46 -7 -54 -10 -8 -2 -30 -7 -50 -10 -20 -3 -47 -8 -61 -10
-14 -3 -38 -7 -55 -10 -31 -4 -122 -21 -165 -29 -14 -3 -38 -8 -55 -10 -16 -3
-55 -10 -85 -15 -30 -6 -68 -12 -85 -14 -16 -2 -41 -6 -55 -9 -14 -4 -40 -8
-58 -11 -19 -3 -36 -7 -39 -10 -7 -7 -8 -1204 -2 -1211 3 -2 57 5 120 16 174
30 183 32 197 32 14 0 14 8 13 259 0 97 3 179 7 182 5 3 31 8 58 11 27 4 57 9
66 11 10 3 30 7 45 10 16 2 44 7 63 10 45 9 56 11 109 18 24 4 47 8 50 10 3 2
29 7 56 11 28 3 66 9 85 13 l35 8 3 138 3 138 -38 -6 c-21 -3 -49 -8 -63 -10
-14 -3 -43 -7 -64 -11 -21 -3 -48 -7 -60 -10 -31 -7 -76 -15 -121 -21 -22 -3
-47 -8 -55 -11 -8 -3 -24 -7 -35 -8 -11 -1 -38 -5 -60 -10 -88 -17 -82 -23
-84 92 -1 111 -5 104 67 118 19 4 43 8 55 10 40 6 101 16 152 25 68 13 104 19
145 26 19 3 55 10 80 16 25 5 65 12 90 15 25 3 47 6 49 8 2 3 4 242 2 284 -1
10 -38 11 -46 2z"/>
<path d="M3997 4645 c-26 -7 -51 -13 -55 -14 -43 -11 -82 -25 -82 -31 0 -4 -6
-7 -13 -7 -15 0 -99 -51 -109 -67 -4 -6 -8 -8 -8 -3 0 10 -102 -89 -102 -100
0 -4 -9 -14 -20 -21 -10 -7 -16 -18 -13 -23 4 -5 2 -9 -3 -9 -13 0 -73 -116
-65 -124 4 -3 2 -6 -4 -6 -5 0 -10 -6 -11 -12 -1 -7 -6 -35 -12 -63 -14 -64
-14 -152 0 -207 15 -58 41 -118 52 -118 5 0 6 -4 3 -10 -3 -5 -1 -10 4 -10 6
0 11 -7 11 -16 0 -8 5 -12 10 -9 6 3 10 1 10 -5 0 -13 30 -46 30 -33 0 4 5 0
11 -9 12 -22 119 -74 176 -86 61 -14 225 -5 255 14 4 3 18 7 30 9 38 7 164 75
199 108 19 17 37 32 41 32 15 0 113 134 139 190 51 108 67 234 44 339 -10 47
-46 126 -58 126 -6 0 -8 3 -4 6 6 7 -52 70 -68 74 -5 2 -16 11 -23 22 -7 10
-17 16 -22 13 -4 -3 -10 -1 -12 5 -1 5 -30 19 -63 31 -71 25 -198 32 -268 14z
m118 -289 c11 -5 23 -10 26 -9 3 1 12 -9 19 -22 7 -14 17 -25 22 -25 4 0 8 -9
8 -19 0 -11 4 -22 9 -25 17 -11 6 -139 -16 -181 -43 -83 -103 -124 -193 -132
-131 -12 -199 84 -178 252 2 11 9 26 16 33 7 8 10 17 7 22 -3 4 2 11 11 14 8
3 13 9 11 13 -3 5 15 23 40 42 70 54 158 69 218 37z"/>
<path d="M2165 4384 c-38 -7 -90 -16 -115 -20 -25 -3 -56 -11 -70 -16 -14 -5
-26 -9 -27 -9 -2 1 -12 1 -23 1 -17 0 -20 -7 -20 -48 0 -53 -6 -66 -24 -51
-48 41 -60 48 -67 44 -4 -3 -10 -1 -14 5 -6 10 -92 25 -135 23 -72 -3 -169
-32 -202 -61 -10 -8 -18 -11 -18 -6 0 5 -7 0 -15 -10 -8 -11 -15 -17 -15 -13
0 8 -50 -34 -86 -72 -13 -14 -21 -28 -18 -33 3 -4 1 -8 -5 -8 -13 0 -72 -101
-65 -112 3 -4 0 -8 -6 -8 -6 0 -9 -4 -5 -9 3 -5 1 -12 -4 -15 -21 -13 -35
-183 -21 -251 16 -77 20 -90 32 -115 7 -14 18 -30 23 -36 6 -6 21 -25 34 -42
13 -17 28 -29 32 -26 5 3 9 1 9 -5 0 -13 48 -38 106 -56 43 -13 139 -13 199 0
47 10 127 50 158 78 15 15 30 26 33 26 3 0 19 16 36 35 17 20 34 36 38 36 8 0
3 -71 -10 -120 -5 -19 -10 -38 -10 -42 0 -5 -14 -21 -30 -37 -17 -15 -30 -33
-30 -40 0 -6 -3 -10 -7 -9 -5 1 -28 -8 -53 -20 -25 -13 -65 -28 -90 -33 -68
-16 -208 -11 -282 10 l-67 18 -7 -26 c-4 -14 -7 -29 -6 -33 1 -5 -2 -8 -7 -8
-5 0 -17 -21 -27 -47 -10 -27 -26 -64 -35 -83 -19 -39 -14 -47 38 -55 16 -3
48 -9 73 -14 46 -10 278 -7 340 4 19 3 53 11 75 17 22 6 45 12 50 14 34 7 127
48 140 60 8 8 17 13 19 12 3 -2 14 5 26 14 11 10 20 15 20 12 0 -3 22 16 48
43 49 49 99 113 87 113 -4 0 1 7 9 16 9 8 14 19 11 24 -3 5 -1 10 4 12 6 1 12
14 15 28 3 14 10 43 17 65 7 26 12 189 14 468 1 235 2 426 1 426 0 -1 -32 -8
-71 -15z m-342 -320 c15 -3 27 -10 27 -15 0 -6 4 -8 9 -4 5 3 12 -4 16 -15 4
-11 10 -18 14 -16 4 3 8 0 9 -7 0 -7 5 -28 10 -47 5 -20 7 -44 6 -55 -2 -11
-5 -30 -6 -43 -4 -36 -69 -113 -119 -139 -51 -26 -137 -33 -181 -15 -92 38
-111 195 -33 279 14 15 25 31 25 36 0 4 4 6 9 3 5 -3 14 1 21 9 7 8 19 15 26
15 8 0 14 5 14 12 0 6 3 9 6 6 3 -3 17 -3 32 2 27 7 63 6 115 -6z"/>
<path d="M7949 3966 c-2 -2 -29 -7 -59 -11 -30 -4 -57 -8 -60 -10 -3 -2 -26
-6 -50 -10 -50 -8 -75 -13 -75 -15 0 -1 -18 -3 -40 -6 -41 -4 -80 -11 -80 -14
0 -1 -11 -3 -25 -6 -49 -8 -85 -15 -110 -19 -14 -3 -41 -7 -60 -10 -19 -2 -46
-7 -60 -10 -40 -9 -83 -17 -105 -20 -11 -1 -20 -3 -20 -4 0 -1 -16 -4 -35 -7
-19 -2 -57 -8 -85 -14 -27 -5 -63 -12 -80 -15 -16 -2 -41 -7 -55 -10 -52 -10
-86 -16 -120 -21 -19 -2 -42 -7 -50 -9 -8 -3 -33 -7 -55 -10 -34 -5 -66 -11
-110 -21 -5 -1 -39 -7 -75 -13 -99 -17 -121 -21 -176 -32 -28 -5 -64 -12 -80
-14 -16 -3 -45 -8 -64 -12 -56 -10 -63 -11 -110 -19 -25 -4 -49 -8 -55 -9 -31
-7 -195 -38 -220 -41 -36 -5 -70 -12 -70 -14 0 -1 -12 -3 -26 -5 -33 -4 -87
-13 -116 -19 -11 -3 -43 -8 -70 -12 -54 -9 -62 -11 -65 -14 -2 -1 -12 -3 -23
-4 -37 -6 -101 -16 -125 -21 -14 -3 -43 -8 -65 -11 -22 -3 -47 -8 -55 -10 -8
-3 -31 -8 -50 -10 -19 -3 -82 -14 -140 -25 -58 -11 -120 -22 -137 -24 -18 -3
-54 -10 -80 -16 -27 -6 -64 -13 -83 -15 -28 -4 -229 -40 -326 -58 -12 -3 -37
-7 -55 -10 -19 -3 -45 -8 -59 -11 -14 -2 -63 -11 -110 -19 -47 -9 -96 -18
-110 -21 -13 -2 -42 -7 -64 -11 -22 -3 -43 -7 -46 -9 -3 -1 -27 -6 -55 -9 -27
-4 -58 -9 -68 -12 -11 -3 -29 -7 -40 -9 -12 -1 -38 -5 -57 -9 -19 -4 -48 -9
-65 -11 -16 -2 -30 -4 -30 -5 0 -1 -15 -4 -80 -14 -11 -2 -20 -4 -20 -5 0 -1
-15 -4 -34 -7 -19 -2 -46 -7 -60 -10 -14 -3 -43 -7 -65 -10 -21 -2 -42 -7 -47
-10 -6 -3 -26 -7 -47 -10 -20 -2 -48 -7 -62 -10 -14 -3 -41 -8 -60 -10 -19 -3
-42 -7 -50 -9 -8 -2 -28 -7 -45 -10 -16 -2 -41 -7 -55 -10 -14 -3 -41 -8 -60
-10 -19 -3 -46 -7 -60 -10 -14 -3 -52 -10 -85 -16 -89 -15 -100 -17 -100 -19
0 -1 -22 -5 -90 -15 -11 -1 -20 -3 -20 -5 0 -2 -14 -4 -85 -14 -25 -4 -59 -11
-77 -15 -17 -5 -34 -7 -37 -4 -2 3 -11 1 -18 -3 -7 -5 -24 -9 -38 -10 -14 -1
-25 -2 -25 -4 0 -1 -11 -3 -25 -4 -14 -2 -38 -6 -55 -9 -27 -6 -54 -11 -120
-22 -29 -5 -76 -14 -103 -20 -12 -3 -43 -8 -69 -11 -26 -3 -51 -8 -56 -11 -5
-3 -30 -7 -56 -9 -25 -3 -53 -7 -61 -11 -8 -3 -26 -7 -40 -9 -14 -1 -38 -5
-55 -9 -16 -3 -43 -8 -60 -11 -16 -3 -41 -7 -55 -10 -14 -3 -41 -7 -60 -10
-19 -2 -48 -8 -65 -13 -16 -4 -38 -7 -47 -5 -10 1 -18 -1 -18 -5 0 -4 -10 -7
-22 -7 -22 -1 -60 -7 -118 -19 -43 -8 -104 -18 -122 -19 -10 0 -18 -4 -18 -9
0 -4 -4 -5 -10 -2 -5 3 -29 1 -52 -6 -24 -6 -56 -13 -73 -14 -41 -4 -140 -22
-140 -25 0 -1 -11 -3 -25 -5 -14 -1 -40 -5 -57 -9 -78 -14 -100 -18 -130 -21
-18 -2 -41 -8 -51 -14 -11 -6 -22 -8 -25 -5 -3 4 -28 1 -54 -5 -26 -6 -61 -13
-78 -16 -16 -3 -41 -7 -55 -10 -14 -3 -40 -8 -59 -11 -18 -3 -43 -8 -55 -10
-11 -2 -37 -7 -56 -10 -19 -4 -42 -8 -50 -9 -8 -2 -21 -4 -28 -4 -14 -1 -52
-79 -55 -111 -1 -11 -4 -20 -7 -20 -4 0 -11 -15 -17 -33 l-10 -34 41 9 c23 4
55 10 71 13 17 3 41 7 55 10 14 3 39 8 55 11 169 30 255 45 280 49 32 6 65 12
105 21 14 3 41 7 60 9 19 3 44 7 56 10 12 2 39 7 60 10 21 4 46 8 54 10 8 3
32 7 54 11 21 3 48 8 60 11 11 2 35 6 51 9 17 2 41 7 55 10 14 4 39 8 56 9 17
2 40 5 50 9 10 3 34 8 52 11 43 7 82 14 109 19 11 3 43 8 70 12 54 9 62 11 66
14 1 1 11 3 22 4 35 4 116 17 138 22 90 19 127 26 162 30 21 3 42 7 46 9 3 3
12 -7 19 -20 7 -14 17 -25 22 -25 4 0 8 -6 8 -14 0 -8 13 -28 29 -45 16 -17
27 -31 25 -31 -5 0 87 -117 133 -170 12 -14 30 -35 41 -47 10 -13 23 -19 27
-15 5 4 5 2 2 -4 -12 -21 330 -333 347 -317 3 4 6 1 6 -5 0 -11 91 -81 94 -72
1 3 14 -7 30 -23 15 -15 31 -25 36 -22 4 3 11 -2 14 -11 3 -8 10 -12 16 -9 5
3 10 2 10 -4 0 -8 110 -76 145 -90 6 -2 22 -12 37 -23 16 -11 32 -16 38 -13 5
3 10 2 10 -3 0 -5 26 -20 58 -35 119 -54 172 -76 172 -70 0 3 6 1 13 -5 12
-10 177 -68 212 -75 11 -2 27 -7 35 -10 35 -13 220 -54 290 -63 14 -2 36 -5
50 -8 187 -38 553 -35 795 5 33 5 72 12 87 14 86 13 361 89 383 105 6 5 13 9
18 9 4 1 8 1 10 2 1 0 9 2 17 4 8 1 33 11 55 20 22 10 45 19 50 20 6 2 42 18
80 36 39 18 72 33 75 34 15 3 76 39 81 47 3 5 8 9 10 7 7 -4 49 12 49 20 0 4
16 13 35 20 22 8 33 17 29 24 -4 7 -4 9 1 5 9 -8 65 22 65 35 0 4 4 6 9 3 5
-3 20 5 35 19 15 13 30 25 34 25 9 0 66 42 145 105 90 73 113 93 184 161 35
33 63 58 63 55 0 -3 4 -1 8 5 4 7 39 47 78 90 96 106 204 244 204 261 0 8 5
11 10 8 6 -3 10 0 10 9 0 8 3 16 8 18 11 5 92 133 92 146 0 7 4 12 8 12 9 0
47 71 44 83 -1 4 3 7 9 7 5 0 7 5 4 10 -3 6 -2 10 3 10 10 0 49 80 44 92 -1 5
2 8 8 8 5 0 10 4 10 9 0 5 16 45 36 88 20 43 37 83 39 88 1 6 5 17 8 25 20 46
35 99 30 104 -4 3 -2 6 3 6 8 0 22 40 40 115 2 6 12 41 23 80 11 38 18 72 16
75 -2 3 4 6 13 6 9 1 37 4 62 9 25 4 54 9 65 11 11 1 29 5 40 7 69 15 101 20
108 18 5 -1 25 3 45 8 20 5 53 12 72 15 19 3 71 12 115 20 44 9 94 18 110 21
17 2 41 7 55 10 14 3 41 8 60 11 32 4 222 38 280 49 14 3 39 8 57 11 26 5 35
14 52 57 12 27 19 52 17 55 -3 2 2 11 10 19 8 8 12 18 9 23 -3 5 -1 11 5 15
16 10 11 25 -8 25 -10 0 -21 -2 -23 -4z m-1335 -453 c-4 -15 -27 -86 -51 -158
-24 -71 -45 -134 -46 -140 -1 -5 -4 -12 -7 -15 -3 -3 -21 -41 -40 -85 -18 -44
-38 -83 -43 -86 -5 -3 -8 -9 -7 -13 0 -4 -13 -33 -31 -66 -17 -32 -31 -62 -32
-67 0 -4 -5 -12 -12 -18 -7 -5 -21 -26 -31 -45 -11 -19 -21 -37 -25 -40 -3 -3
-19 -26 -36 -52 -48 -72 -76 -110 -100 -138 l-23 -25 -1 30 c-1 17 -1 40 -1
53 1 12 -3 22 -8 22 -6 0 -10 7 -10 15 0 8 -4 15 -8 15 -5 0 -15 11 -22 25 -7
13 -18 21 -24 18 -6 -3 -8 -2 -3 2 4 5 0 16 -8 25 -12 13 -16 43 -17 126 l-1
109 -40 42 c-32 34 -40 50 -42 85 -1 24 4 53 12 66 7 12 11 22 8 22 -4 0 2 12
13 28 10 15 28 47 41 71 18 35 19 46 9 58 -7 8 -14 25 -15 38 -3 20 2 24 44
30 53 9 62 11 113 21 19 3 46 8 60 10 32 5 65 12 65 14 0 1 14 3 30 5 17 2 46
7 65 11 19 4 37 7 40 7 3 -1 30 4 60 11 30 7 71 13 92 15 38 2 38 1 32 -26z
m-2129 -401 c-13 -127 -17 -147 -38 -161 -11 -8 -29 -23 -38 -32 -10 -10 -20
-15 -23 -11 -3 3 -6 0 -6 -7 0 -9 -18 -12 -57 -11 -110 3 -108 4 -133 -44 -22
-40 -23 -48 -12 -97 7 -30 14 -65 17 -78 2 -13 6 -25 8 -28 2 -2 -11 -19 -30
-39 -18 -20 -30 -40 -27 -46 4 -7 2 -8 -4 -4 -7 4 -12 3 -12 -2 0 -4 -16 -27
-36 -50 -19 -23 -32 -42 -28 -42 5 0 -2 -7 -14 -16 -12 -8 -20 -20 -17 -25 4
-5 2 -9 -4 -9 -9 0 -23 -30 -18 -41 5 -12 -37 -43 -111 -79 -64 -31 -111 -44
-173 -49 -4 -1 -6 -11 -5 -23 1 -16 10 -25 34 -32 37 -10 40 -28 12 -71 -11
-16 -20 -26 -20 -20 0 5 -7 -1 -16 -14 -15 -21 -15 -24 4 -43 12 -12 35 -21
58 -22 35 -1 38 -3 37 -31 0 -17 -3 -37 -6 -45 -27 -70 -26 -120 3 -120 3 0
26 -17 49 -39 31 -29 40 -43 34 -57 -10 -29 -20 -32 -101 -27 -67 5 -79 9
-110 37 -19 17 -40 30 -46 28 -6 -2 -8 -1 -4 3 7 7 -14 35 -26 35 -9 0 -51 47
-54 61 -2 8 -7 16 -10 19 -4 3 -16 24 -27 47 -11 22 -24 39 -30 35 -5 -3 -7
-2 -3 2 3 4 -4 28 -18 53 -13 25 -22 55 -19 67 3 11 7 58 9 103 4 80 3 82 -29
117 -18 20 -30 36 -27 36 3 0 -3 9 -13 20 -17 19 -17 24 2 125 l20 106 -29 6
-28 6 0 178 c0 177 0 179 23 183 33 8 127 25 167 31 19 3 71 13 115 21 44 8
91 17 105 19 14 2 61 11 105 20 44 9 94 18 110 20 50 6 140 22 140 25 0 1 15
3 34 6 19 2 46 6 60 9 14 3 42 8 61 11 19 3 62 11 95 18 108 22 106 23 100
-32z"/>
</g>
</svg>
